<svg width="370.32432432432427" height="77.4238368769426" viewBox="0 0 370.32432432432427 77.4238368769426" class="css-1j8o68f"><defs id="SvgjsDefs1764"></defs><g id="SvgjsG1765" featurekey="symbolFeature-0" transform="matrix(0.8602648541882512,0,0,0.8602648541882512,-5.175411434874689,-4.301219258141672)" fill="#a80038"><g xmlns="http://www.w3.org/2000/svg" transform="translate(0,-952.36218)"><path d="m 49.999995,957.36217 c -24.28804,0 -43.98393,19.69593 -43.98393,43.98393 0,28.0272 24.96818,42.9874 34.68302,42.9874 7.83778,0 11.59222,-7.1404 11.6066,-12.0951 -0.1812,-5.1501 0.44898,-10.5011 2.52063,-11.5284 1.23741,-0.8229 3.57671,-2.0864 4.4746,-5.0608 l 8.01129,-20.5558 c 0,0 0.64481,-1.4045 0.64481,-3.6149 0,-6.2195 -5.88428,-9.1386 -10.06296,-9.7308 -0.23198,-0.075 -0.48553,-0.1172 -0.74251,-0.1172 -0.0919,0 -0.16523,0.01 -0.25402,0.019 -1.07359,0.1213 -1.94585,0.9528 -2.11029,2.0126 -0.0188,0.1207 -0.0195,0.245 -0.0195,0.3713 0,0.1263 6.2e-4,0.2505 0.0195,0.3712 0.15069,0.9729 0.88632,1.7395 1.83673,1.954 0.14069,0.032 0.30123,0.053 0.44942,0.059 2.49358,0.3583 6.13547,1.4873 6.13547,5.0608 0,0 0.0339,1.0698 -0.37125,2.1103 l -7.91359,20.3604 c -1.57131,3.504 -4.92402,3.5758 -4.92402,3.5758 0,0 -3.3527,-0.072 -4.92401,-3.5758 l -7.93313,-20.3604 c -0.40517,-1.0405 -0.37125,-2.1103 -0.37125,-2.1103 0,-3.5741 3.66143,-4.7032 6.15501,-5.0608 0.14882,-0.01 0.28981,-0.027 0.42988,-0.059 0.95041,-0.2145 1.68604,-0.9811 1.83673,-1.954 0.0188,-0.1207 0.0391,-0.2449 0.0391,-0.3712 0,-0.1263 -0.0203,-0.2506 -0.0391,-0.3713 -0.16445,-1.0598 -1.01716,-1.8919 -2.09075,-2.0126 -0.0888,-0.01 -0.18227,-0.019 -0.27356,-0.019 -0.25698,0 -0.49099,0.042 -0.72297,0.1172 -4.17869,0.5922 -10.0825,3.5113 -10.0825,9.7308 0,2.2104 0.66435,3.6149 0.66435,3.6149 l 8.01129,20.5558 c 0.89789,2.975 3.23656,4.2392 4.4746,5.0608 3.08318,2.6431 2.55971,7.3752 2.55971,11.5089 -0.003,2.2422 -1.43125,7.1515 -7.19063,7.1515 -9.36531,0 -29.87624,-14.5097 -29.87624,-38.0243 0,-21.7207 17.6128,-39.33347 39.33347,-39.33347 21.72068,0 39.33348,17.61277 39.33348,39.33347 0,16.1658 -9.75814,30.0448 -23.70169,36.0899 -1.05734,-1.0698 -2.51922,-1.739 -4.14242,-1.739 -3.2214,0 -5.84238,2.6209 -5.84238,5.8423 0,3.2202 2.62098,5.8229 5.84238,5.8229 3.13948,0 5.67449,-2.4808 5.8033,-5.5884 15.68368,-6.7204 26.69127,-22.2842 26.69127,-40.4277 6.2e-4,-24.288 -19.69589,-43.98393 -43.98394,-43.98393 z m 11.48937,80.23013 c 1.85604,0 3.92978,2.091 3.92748,3.947 -0.002,1.8515 -2.07605,3.9252 -3.92748,3.9275 -1.85605,0 -3.94473,-2.0714 -3.94703,-3.9275 -0.002,-1.8606 2.08638,-3.9493 3.94703,-3.947 z" style="" fill="#a80038" fill-opacity="1"></path></g></g><g id="SvgjsG1766" featurekey="nameFeature-0" transform="matrix(1.6252403011835588,0,0,1.6252403011835588,96.00000077497496,-2.5526002126222203)" fill="#111111"><path d="M1.16 38.8 l4.72 0 l0 1.2 l-5.88 0 l0 -28.6 l1.16 0 l0 27.4 z M24.195 12.559999999999999 c-7.24 0 -13.08 5.88 -13.08 13.12 s5.84 13.12 13.08 13.12 s13.16 -5.88 13.16 -13.12 s-5.92 -13.12 -13.16 -13.12 z M24.195 11.399999999999999 c7.92 0 14.32 6.4 14.32 14.28 s-6.4 14.32 -14.32 14.32 c-7.88 0 -14.28 -6.44 -14.28 -14.32 s6.4 -14.28 14.28 -14.28 z M53.47 21.16 c0 3.72 -2.04 6.96 -5.08 8.6 l5.08 10.24 l-1.32 0 l-4.84 -9.76 c-1.04 0.44 -2.2 0.68 -3.4 0.68 l-0.2 0 l0 9.08 l-1.16 0 l0 -28.6 l1.36 0 c5.28 0 9.56 4.36 9.56 9.76 z M43.709999999999994 12.559999999999999 l0 17.2 l0.2 0 c4.64 0 8.4 -3.88 8.4 -8.6 c0 -4.76 -3.76 -8.6 -8.4 -8.6 l-0.2 0 z M63.26499999999999 12.600000000000001 l-4.6 0 l0 7.88 l4.6 0 l0 1.2 l-4.6 0 l0 17.12 l4.6 0 l0 1.2 l-5.76 0 l0 -28.6 l5.76 0 l0 1.2 z M84.02 11.399999999999999 l1.16 0 l0 28.6 l-1.16 0 l0 -26 l-7.12 14.32 l-1.32 0 l-7.12 -14.32 l0 26 l-1.16 0 l0 -28.6 l1.16 0 l7.76 15.6 z M100.81 11.399999999999999 l0 28.6 l-1.16 0 l0 -28.6 l1.16 0 z M106.205 11.399999999999999 c5.28 0 9.56 4.36 9.56 9.76 c0 5.36 -4.28 9.76 -9.56 9.76 l-0.2 0 l0 9.08 l-1.16 0 l0 -28.6 l1.36 0 z M106.205 29.759999999999998 c4.64 0 8.4 -3.88 8.4 -8.6 c0 -4.76 -3.76 -8.6 -8.4 -8.6 l-0.2 0 l0 17.2 l0.2 0 z M123.39999999999999 40.56 c-2.36 0 -4.6 -1.12 -6 -3.04 l0.92 -0.68 c1.2 1.6 3.08 2.56 5.08 2.56 c3.4 0 6.2 -2.8 6.2 -6.24 c0 -3.56 -2.72 -6.16 -5.36 -8.72 c-2.56 -2.4 -5.16 -4.92 -5.16 -8.24 c0 -2.96 2.44 -5.4 5.4 -5.4 c1.72 0 3.36 0.84 4.4 2.24 l-0.96 0.68 c-0.8 -1.08 -2.08 -1.76 -3.44 -1.76 c-2.32 0 -4.24 1.92 -4.24 4.24 c0 2.8 2.32 5.04 4.8 7.4 c2.8 2.72 5.72 5.52 5.72 9.56 c0 4.08 -3.32 7.4 -7.36 7.4 z M140.83499999999998 40.56 c-3.32 0 -6.04 -2.72 -6.04 -6.08 l0 -23.08 l1.16 0 l0 23.08 c0 2.72 2.2 4.88 4.88 4.88 s4.88 -2.16 4.88 -4.88 l0 -23.08 l1.16 0 l0 23.08 c0 3.36 -2.72 6.08 -6.04 6.08 z M167.63 11.399999999999999 l1.16 0 l0 28.6 l-1.16 0 l0 -26 l-7.12 14.32 l-1.32 0 l-7.12 -14.32 l0 26 l-1.16 0 l0 -28.6 l1.16 0 l7.76 15.6 z"></path></g></svg>